<svg width="23" height="23" viewBox="0 0 23 23" fill="none" xmlns="http://www.w3.org/2000/svg">
<g filter="url(#filter0_d_45_444)">
<path d="M11.0269 5.67C9.73686 5.67 8.69686 6.72 8.69686 8C8.69686 9.28 9.74686 10.33 11.0269 10.33C12.3069 10.33 13.3569 9.28 13.3569 8C13.3569 6.72 12.3069 5.67 11.0269 5.67ZM18.0269 8C18.0269 7.03 18.0269 6.08 17.9769 5.11C17.9269 3.99 17.6669 2.99 16.8469 2.18C16.0269 1.36 15.0369 1.1 13.9169 1.05C12.9469 1 11.9969 1 11.0269 1C10.0569 1 9.10686 1 8.13686 1.05C7.01686 1.1 6.01686 1.36 5.20686 2.18C4.38686 3 4.12686 3.99 4.07686 5.11C4.02686 6.08 4.02686 7.03 4.02686 8C4.02686 8.97 4.02686 9.92 4.07686 10.89C4.12686 12.01 4.38686 13.01 5.20686 13.82C6.02686 14.64 7.01686 14.9 8.13686 14.95C9.10686 15 10.0569 15 11.0269 15C11.9969 15 12.9469 15 13.9169 14.95C15.0369 14.9 16.0369 14.64 16.8469 13.82C17.6669 13 17.9269 12.01 17.9769 10.89C18.0369 9.93 18.0269 8.97 18.0269 8ZM11.0269 11.59C9.03686 11.59 7.43686 9.99 7.43686 8C7.43686 6.01 9.03686 4.41 11.0269 4.41C13.0169 4.41 14.6169 6.01 14.6169 8C14.6169 9.99 13.0169 11.59 11.0269 11.59ZM14.7669 5.1C14.3069 5.1 13.9269 4.73 13.9269 4.26C13.9269 3.79 14.2969 3.42 14.7669 3.42C15.2369 3.42 15.6069 3.79 15.6069 4.26C15.6094 4.36954 15.5894 4.47843 15.5481 4.57992C15.5068 4.68141 15.4451 4.77333 15.3669 4.85C15.2902 4.92827 15.1983 4.98997 15.0968 5.03125C14.9953 5.07253 14.8864 5.09253 14.7769 5.09L14.7669 5.1Z" fill="white"/>
</g>
<defs>
<filter id="filter0_d_45_444" x="-0.973145" y="0" width="24" height="24" filterUnits="userSpaceOnUse" color-interpolation-filters="sRGB">
<feFlood flood-opacity="0" result="BackgroundImageFix"/>
<feColorMatrix in="SourceAlpha" type="matrix" values="0 0 0 0 0 0 0 0 0 0 0 0 0 0 0 0 0 0 127 0" result="hardAlpha"/>
<feOffset dy="4"/>
<feGaussianBlur stdDeviation="2"/>
<feComposite in2="hardAlpha" operator="out"/>
<feColorMatrix type="matrix" values="0 0 0 0 0 0 0 0 0 0 0 0 0 0 0 0 0 0 0.25 0"/>
<feBlend mode="normal" in2="BackgroundImageFix" result="effect1_dropShadow_45_444"/>
<feBlend mode="normal" in="SourceGraphic" in2="effect1_dropShadow_45_444" result="shape"/>
</filter>
</defs>
</svg>
