<svg width="24" height="24" viewBox="0 0 24 24" fill="none" xmlns="http://www.w3.org/2000/svg">
<g clip-path="url(#clip0_45_447)" filter="url(#filter0_d_45_447)">
<path d="M16.9814 0.5H6.07231C5.52982 0.5 5.00955 0.715503 4.62596 1.0991C4.24236 1.4827 4.02686 2.00297 4.02686 2.54545V13.4545C4.02686 13.997 4.24236 14.5173 4.62596 14.9009C5.00955 15.2845 5.52982 15.5 6.07231 15.5H16.9814C17.5239 15.5 18.0442 15.2845 18.4278 14.9009C18.8114 14.5173 19.0269 13.997 19.0269 13.4545V2.54545C19.0269 2.00297 18.8114 1.4827 18.4278 1.0991C18.0442 0.715503 17.5239 0.5 16.9814 0.5ZM9.14049 12.3705C9.1406 12.412 9.13251 12.4533 9.11667 12.4917C9.10083 12.5302 9.07756 12.5651 9.04818 12.5946C9.01881 12.624 8.98392 12.6474 8.9455 12.6634C8.90708 12.6793 8.86589 12.6875 8.8243 12.6875H7.47686C7.43519 12.6876 7.39391 12.6795 7.35539 12.6636C7.31688 12.6477 7.28188 12.6244 7.25242 12.5949C7.22296 12.5654 7.19961 12.5304 7.18371 12.4919C7.16782 12.4534 7.1597 12.4121 7.15981 12.3705V6.72159C7.15981 6.63751 7.19321 6.55686 7.25267 6.49741C7.31213 6.43795 7.39277 6.40455 7.47686 6.40455H8.8243C8.90824 6.40477 8.98866 6.43827 9.04793 6.49771C9.10721 6.55714 9.14049 6.63765 9.14049 6.72159V12.3705ZM8.15015 5.86932C7.89731 5.86932 7.65014 5.79434 7.4399 5.65387C7.22967 5.51339 7.06581 5.31373 6.96906 5.08013C6.8723 4.84654 6.84698 4.58949 6.89631 4.3415C6.94563 4.09352 7.06739 3.86573 7.24618 3.68694C7.42497 3.50815 7.65276 3.38639 7.90075 3.33706C8.14873 3.28774 8.40578 3.31305 8.63938 3.40981C8.87298 3.50657 9.07264 3.67043 9.21311 3.88066C9.35358 4.0909 9.42856 4.33806 9.42856 4.59091C9.42856 4.92996 9.29387 5.25513 9.05412 5.49488C8.81437 5.73463 8.48921 5.86932 8.15015 5.86932ZM16.1837 12.3926C16.1838 12.4309 16.1763 12.4689 16.1617 12.5043C16.1471 12.5397 16.1256 12.5719 16.0986 12.599C16.0715 12.6261 16.0393 12.6475 16.0039 12.6621C15.9685 12.6767 15.9305 12.6842 15.8922 12.6841H14.4433C14.405 12.6842 14.3671 12.6767 14.3317 12.6621C14.2962 12.6475 14.2641 12.6261 14.237 12.599C14.2099 12.5719 14.1884 12.5397 14.1738 12.5043C14.1592 12.4689 14.1517 12.4309 14.1519 12.3926V9.74631C14.1519 9.35085 14.2678 8.01449 13.118 8.01449C12.2274 8.01449 12.0459 8.92898 12.0101 9.33977V12.396C12.0101 12.4726 11.98 12.5461 11.9262 12.6006C11.8725 12.6552 11.7994 12.6864 11.7229 12.6875H10.3234C10.2852 12.6875 10.2473 12.68 10.212 12.6653C10.1767 12.6506 10.1446 12.6292 10.1176 12.6021C10.0906 12.575 10.0693 12.5429 10.0547 12.5075C10.0401 12.4721 10.0327 12.4343 10.0328 12.396V6.69688C10.0327 6.65864 10.0401 6.62075 10.0547 6.5854C10.0693 6.55004 10.0906 6.5179 10.1176 6.49082C10.1446 6.46374 10.1767 6.44226 10.212 6.4276C10.2473 6.41294 10.2852 6.4054 10.3234 6.4054H11.7229C11.8002 6.4054 11.8743 6.43611 11.929 6.49077C11.9836 6.54543 12.0144 6.61957 12.0144 6.69688V7.18949C12.345 6.69261 12.8351 6.3108 13.8808 6.3108C16.1973 6.3108 16.182 8.47386 16.182 9.66193L16.1837 12.3926Z" fill="white"/>
</g>
<defs>
<filter id="filter0_d_45_447" x="0.0268555" y="0.5" width="23" height="23" filterUnits="userSpaceOnUse" color-interpolation-filters="sRGB">
<feFlood flood-opacity="0" result="BackgroundImageFix"/>
<feColorMatrix in="SourceAlpha" type="matrix" values="0 0 0 0 0 0 0 0 0 0 0 0 0 0 0 0 0 0 127 0" result="hardAlpha"/>
<feOffset dy="4"/>
<feGaussianBlur stdDeviation="2"/>
<feComposite in2="hardAlpha" operator="out"/>
<feColorMatrix type="matrix" values="0 0 0 0 0 0 0 0 0 0 0 0 0 0 0 0 0 0 0.25 0"/>
<feBlend mode="normal" in2="BackgroundImageFix" result="effect1_dropShadow_45_447"/>
<feBlend mode="normal" in="SourceGraphic" in2="effect1_dropShadow_45_447" result="shape"/>
</filter>
<clipPath id="clip0_45_447">
<rect width="15" height="15" fill="white" transform="translate(4.02686 0.5)"/>
</clipPath>
</defs>
</svg>
