<svg width="16" height="16" viewBox="0 0 16 16" fill="none" xmlns="http://www.w3.org/2000/svg">
<path d="M8.47502 0.5H8.47127C4.33596 0.5 0.973145 3.86375 0.973145 8C0.973145 9.64062 1.50189 11.1613 2.40096 12.3959L1.46627 15.1822L4.34908 14.2606C5.53502 15.0463 6.94971 15.5 8.47502 15.5C12.6103 15.5 15.9731 12.1353 15.9731 8C15.9731 3.86469 12.6103 0.5 8.47502 0.5ZM12.8391 11.0909C12.6581 11.6019 11.94 12.0256 11.3672 12.1494C10.9753 12.2328 10.4635 12.2994 8.74033 11.585C6.53627 10.6719 5.11689 8.43219 5.00627 8.28687C4.90033 8.14156 4.11564 7.10094 4.11564 6.02469C4.11564 4.94844 4.66221 4.42438 4.88252 4.19938C5.06346 4.01469 5.36252 3.93031 5.64939 3.93031C5.74221 3.93031 5.82564 3.935 5.90064 3.93875C6.12096 3.94812 6.23158 3.96125 6.37689 4.30906C6.55783 4.745 6.99846 5.82125 7.05096 5.93188C7.10439 6.0425 7.15783 6.1925 7.08283 6.33781C7.01252 6.48781 6.95064 6.55437 6.84002 6.68187C6.72939 6.80937 6.62439 6.90688 6.51377 7.04375C6.41252 7.16281 6.29814 7.29031 6.42564 7.51063C6.55314 7.72625 6.99377 8.44531 7.64252 9.02281C8.47971 9.76812 9.15846 10.0063 9.40127 10.1075C9.58221 10.1825 9.79783 10.1647 9.93002 10.0241C10.0978 9.84313 10.305 9.54313 10.516 9.24781C10.666 9.03594 10.8553 9.00969 11.0541 9.08469C11.2566 9.155 12.3281 9.68469 12.5485 9.79437C12.7688 9.905 12.9141 9.9575 12.9675 10.0503C13.02 10.1431 13.02 10.5791 12.8391 11.0909Z" fill="white"/>
</svg>
