<svg width="21" height="16" viewBox="0 0 21 16" fill="none" xmlns="http://www.w3.org/2000/svg">
<path d="M19.5269 2.77679C19.2769 1.83929 18.6519 1.16964 17.7769 0.901786C16.2769 0.5 9.90185 0.5 9.90185 0.5C9.90185 0.5 3.65186 0.5 2.02686 0.901786C1.15186 1.16964 0.526852 1.83929 0.276852 2.77679C0.0268517 4.51786 0.0268555 8 0.0268555 8C0.0268555 8 0.0268593 11.4821 0.401859 13.2232C0.651859 14.1607 1.27685 14.8304 2.15185 15.0982C3.65185 15.5 10.0269 15.5 10.0269 15.5C10.0269 15.5 16.2768 15.5 17.9018 15.0982C18.7768 14.8304 19.4019 14.1607 19.6519 13.2232C20.0269 11.4821 20.0269 8 20.0269 8C20.0269 8 20.0269 4.51786 19.5269 2.77679ZM8.02685 11.2143V4.78572L13.2769 8L8.02685 11.2143Z" fill="white"/>
</svg>
