<svg width="464" height="69" viewBox="0 0 464 69" fill="none" xmlns="http://www.w3.org/2000/svg">
<g clip-path="url(#clip0_1_2209)">
<path d="M190.673 15.3063C187.175 15.3063 183.676 16.181 180.615 18.3676C178.865 19.6795 177.116 20.9915 175.804 22.3035C174.492 20.5542 173.18 19.2422 171.868 18.3676C168.807 16.6183 165.308 15.3063 161.81 15.3063C157.874 15.3063 153.938 16.6183 150.877 18.8049V16.181H138.194V62.0999C138.194 64.2865 139.944 66.4731 142.568 66.4731H150.877V44.607C150.877 38.0471 151.751 34.9859 152.189 33.6739C153.063 31.9246 154.375 30.1753 155.687 29.3007C157.437 27.9887 158.749 27.5514 160.498 27.5514C162.247 27.5514 163.559 27.9887 164.434 28.8633C165.308 29.738 166.183 30.6126 166.62 31.9246C167.058 33.2366 167.058 35.4232 167.058 40.6711V62.0999C167.058 64.2865 168.807 66.4731 171.431 66.4731H179.303V45.9189C179.303 40.6711 179.74 36.7352 180.615 34.5485C181.489 32.3619 182.364 30.6126 184.113 29.3007C185.863 27.9887 187.612 27.5514 189.361 27.5514C191.11 27.5514 192.422 27.9887 193.734 28.8633C194.609 29.738 195.484 30.6126 195.484 31.9246C195.921 32.7992 195.921 34.9859 195.921 39.3591V62.0999C195.921 64.2865 197.67 66.4731 200.294 66.4731H208.603V39.3591C208.603 30.1753 206.854 24.0528 203.355 20.5542C199.857 17.0556 195.484 15.3063 190.673 15.3063Z" fill="#F4F7FE"/>
<path d="M251.461 19.2422C247.525 16.6183 243.152 15.3063 238.341 15.3063C231.344 15.3063 224.784 17.9303 219.974 22.7408C215.163 27.5514 212.539 33.6739 212.539 40.6711C212.539 47.6682 215.163 53.7908 219.974 59.0386C224.784 64.2865 230.907 66.4731 237.904 66.4731C242.714 66.4731 247.088 65.1612 251.461 62.0999C251.461 63.8492 252.773 64.7238 254.085 64.7238H263.706V16.181H251.461V19.2422ZM247.962 50.7295C245.338 53.3534 242.277 54.6654 238.778 54.6654C235.28 54.6654 232.219 53.3534 229.157 50.7295C226.533 48.1056 225.221 44.607 225.221 41.1084C225.221 37.1725 226.533 34.1112 229.157 31.4873C231.781 28.8633 234.843 27.5514 238.778 27.5514C242.714 27.5514 245.776 28.8633 248.4 31.4873C251.024 34.1112 252.335 37.1725 252.335 41.1084C251.898 45.0443 250.586 48.1056 247.962 50.7295Z" fill="#F4F7FE"/>
<path d="M308.313 48.1056C304.814 52.4788 300.441 54.6654 295.193 54.6654C290.82 54.6654 287.321 53.3534 284.698 50.7295C282.074 48.1056 280.762 44.607 280.762 40.6711C280.762 36.7352 282.074 33.6739 284.698 31.0499C287.321 28.426 290.82 27.114 295.193 27.114C300.441 27.114 304.814 29.3007 308.313 33.6739L310.062 35.8605L320.121 29.738L318.809 27.114C316.622 23.1781 313.124 20.1169 309.188 18.3676C305.252 16.181 300.879 15.3063 296.068 15.3063C288.196 15.3063 281.636 17.9303 276.388 22.7408C271.141 27.9887 268.517 34.1112 268.517 41.1084C268.517 48.1056 271.141 54.2281 275.951 59.0386C281.199 63.8492 287.322 66.4731 294.756 66.4731C299.567 66.4731 303.94 65.5985 307.876 63.4119C311.812 61.6626 315.31 58.6013 317.934 54.6654L319.683 52.0415L312.249 46.7936C310.937 46.7936 309.188 46.7936 308.313 48.1056Z" fill="#F4F7FE"/>
<path d="M349.421 15.3063C344.611 15.3063 339.8 16.6183 335.864 19.2422V0H323.619V61.2253C323.619 63.4119 325.368 65.1612 327.992 65.1612H336.302V62.5372C340.237 65.1612 344.611 66.9105 349.421 66.9105C356.418 66.9105 362.541 64.2865 367.789 59.476C372.599 54.6654 375.223 48.5429 375.223 41.1084C375.223 34.1112 372.599 27.9887 367.789 23.1781C362.978 17.4929 356.856 15.3063 349.421 15.3063ZM358.605 50.2922C355.981 52.9161 352.92 54.2281 348.984 54.2281C345.048 54.2281 341.987 52.9161 339.8 50.2922C337.176 47.6682 335.864 44.1697 335.864 40.2337C335.864 36.2978 337.176 33.2366 339.8 30.6126C342.424 27.9887 345.485 26.6767 349.421 26.6767C353.357 26.6767 356.418 27.9887 359.042 30.6126C361.666 33.2366 362.978 36.7352 362.978 40.2337C362.541 44.607 361.229 47.6682 358.605 50.2922Z" fill="#F4F7FE"/>
<path d="M417.644 44.607H430.326V41.5457C430.326 33.2366 427.702 27.114 422.892 22.3035C418.081 17.4929 411.959 14.869 404.961 14.869C397.964 14.869 391.842 17.4929 387.031 22.3035C382.221 27.114 379.597 33.2366 379.597 40.6711C379.597 47.6682 382.221 53.7908 386.594 58.6013C391.404 63.8492 397.527 66.0358 404.961 66.0358C410.209 66.0358 415.02 64.7238 418.956 62.0999C422.892 59.476 425.953 55.9774 428.577 51.1668L419.83 48.1056C418.081 47.6682 416.332 48.1056 415.02 49.4175C411.959 52.9161 408.46 54.6654 404.087 54.6654C400.588 54.6654 397.964 53.3534 395.34 51.1668C393.591 49.4175 392.279 47.2309 391.842 44.607H417.644ZM404.961 26.6767C410.647 26.6767 415.895 30.1753 417.644 35.8605H391.842C394.028 30.6126 399.276 26.6767 404.961 26.6767Z" fill="#F4F7FE"/>
<path d="M464 15.7436C462.688 15.7436 461.376 15.3063 460.064 15.3063C455.691 15.3063 451.318 16.6183 447.819 18.8049C447.382 18.8049 447.382 19.2422 446.944 19.2422V16.6183H434.699V62.5372C434.699 64.7238 436.449 66.9105 439.072 66.9105H446.944V41.5457C446.944 41.1084 446.944 40.6711 446.944 40.2337C446.944 39.3591 447.382 38.4844 447.382 37.6098C448.256 33.6739 451.318 28.8633 458.315 27.9887L464 15.7436Z" fill="#F4F7FE"/>
<path d="M75.2201 15.7436C69.9722 12.2451 62.5377 13.557 58.6018 18.8049L36.7356 50.2922C32.7997 55.5401 34.549 62.9745 39.7969 66.4731C45.0448 69.9717 52.4793 68.6598 56.4152 63.4119L78.2814 31.9246C82.2173 27.114 80.9053 19.6795 75.2201 15.7436Z" fill="#F4F7FE"/>
<path d="M40.6713 15.3063C35.4234 11.8077 27.9889 13.1197 24.053 18.3676L2.18682 49.8548C-1.74909 55.1027 0.000203945 62.5372 5.24808 66.0358C10.496 69.5344 17.9305 68.2224 21.8664 62.9745L43.7325 31.4873C47.2311 26.2394 45.9191 19.2422 40.6713 15.3063Z" fill="#F4F7FE"/>
<path d="M90.0887 42.4204L99.7098 55.9774C103.208 61.2253 99.7098 68.2224 93.1499 68.2224H83.5288H73.9077C67.3478 68.2224 63.8493 61.2253 67.3478 55.9774L76.969 42.4204C80.0302 38.0471 87.0274 38.0471 90.0887 42.4204Z" fill="#F4F7FE"/>
</g>
<defs>
<clipPath id="clip0_1_2209">
<rect width="464" height="68.6598" fill="white"/>
</clipPath>
</defs>
</svg>
