<svg width="16" height="17" viewBox="0 0 16 17" fill="none" xmlns="http://www.w3.org/2000/svg">
<path fill-rule="evenodd" clip-rule="evenodd" d="M5.68767 2.62426C7.14424 1.77793 8.9346 1.79272 10.3775 2.66301C11.8062 3.55102 12.6746 5.13587 12.6665 6.84071C12.6332 8.53437 11.7021 10.1264 10.5382 11.3571C9.86648 12.0707 9.115 12.7016 8.29915 13.2371C8.21512 13.2857 8.12309 13.3182 8.02758 13.3331C7.93565 13.3292 7.84613 13.302 7.76709 13.254C6.52154 12.4495 5.42881 11.4224 4.54147 10.2224C3.79898 9.22066 3.37714 8.01042 3.33325 6.75603C3.33229 5.04791 4.2311 3.47059 5.68767 2.62426ZM6.52936 7.46294C6.77438 8.06697 7.35271 8.46098 7.99432 8.46098C8.41465 8.464 8.81871 8.29563 9.11646 7.9934C9.41421 7.69116 9.58091 7.28017 9.57942 6.852C9.58166 6.19844 9.19689 5.60796 8.60476 5.35626C8.01263 5.10457 7.32995 5.24131 6.87546 5.70265C6.42098 6.16398 6.28435 6.8589 6.52936 7.46294Z" fill="white"/>
<ellipse cx="7.99984" cy="14.6664" rx="3.33333" ry="0.666667" fill="#B88F48"/>
</svg>
