<svg width="16" height="17" viewBox="0 0 16 17" fill="none" xmlns="http://www.w3.org/2000/svg">
<path d="M14.6666 11.2932C14.6666 13.1532 13.1733 14.6599 11.3133 14.6665H11.3066H4.69992C2.84659 14.6665 1.33325 13.1665 1.33325 11.3065V11.2999C1.33325 11.2999 1.33725 8.34921 1.34259 6.86521C1.34325 6.58654 1.66325 6.43054 1.88125 6.60388C3.46525 7.86054 6.29792 10.1519 6.33325 10.1819C6.80659 10.5612 7.40659 10.7752 8.01992 10.7752C8.63325 10.7752 9.23325 10.5612 9.70659 10.1745C9.74192 10.1512 12.5113 7.92854 14.1193 6.65121C14.3379 6.47721 14.6593 6.63321 14.6599 6.91121C14.6666 8.38388 14.6666 11.2932 14.6666 11.2932Z" fill="white"/>
<path d="M14.3173 4.44881C13.74 3.36081 12.604 2.66615 11.3533 2.66615H4.7C3.44934 2.66615 2.31334 3.36081 1.736 4.44881C1.60667 4.69215 1.668 4.99548 1.88334 5.16748L6.83334 9.12681C7.18 9.40681 7.6 9.54614 8.02 9.54614C8.02267 9.54614 8.02467 9.54614 8.02667 9.54614C8.02867 9.54614 8.03134 9.54614 8.03334 9.54614C8.45334 9.54614 8.87334 9.40681 9.22 9.12681L14.17 5.16748C14.3853 4.99548 14.4467 4.69215 14.3173 4.44881Z" fill="#B88F48"/>
</svg>
