<svg width="14" height="14" viewBox="0 0 14 14" fill="none" xmlns="http://www.w3.org/2000/svg">
<path fill-rule="evenodd" clip-rule="evenodd" d="M9.22884 8.06508C8.56351 8.38908 7.98751 8.67041 6.48951 7.17241C4.99217 5.67441 5.27217 5.09908 5.59684 4.43308C6.06684 3.46775 6.25684 2.58975 4.12217 0.831747C3.61217 0.415081 3.05884 0.255081 2.48084 0.367081C1.25884 0.595747 0.395506 1.95575 0.396839 1.95575C-0.144494 2.71308 -0.885827 4.99041 3.89217 9.76908C7.03484 12.9124 9.09617 13.6664 10.3468 13.6664C10.9975 13.6664 11.4288 13.4624 11.6782 13.2831C11.6915 13.2751 13.0635 12.4251 13.2955 11.1791C13.4035 10.5997 13.2462 10.0484 12.8288 9.53841C11.0715 7.40575 10.1935 7.59508 9.22884 8.06508Z" fill="white"/>
<path fill-rule="evenodd" clip-rule="evenodd" d="M8.61869 0.00387575C8.34336 -0.0307909 8.09669 0.171209 8.06669 0.445209C8.03602 0.719876 8.23402 0.966542 8.50802 0.997209C10.7594 1.24721 12.5074 2.99388 12.76 5.24454C12.7887 5.49988 13.0047 5.68854 13.256 5.68854C13.2747 5.68854 13.294 5.68721 13.3127 5.68521C13.5867 5.65521 13.784 5.40721 13.7534 5.13254C13.4487 2.41521 11.3374 0.305876 8.61869 0.00387575Z" fill="#B88F48"/>
<path fill-rule="evenodd" clip-rule="evenodd" d="M10.4058 5.29161C10.4525 5.53027 10.6618 5.69561 10.8958 5.69561C10.9278 5.69561 10.9598 5.69294 10.9925 5.68694C11.2632 5.63427 11.4405 5.37094 11.3878 5.10027C11.1165 3.71227 10.0452 2.64094 8.65849 2.37161C8.39383 2.31894 8.12516 2.49627 8.07249 2.76761C8.01983 3.03827 8.19716 3.30094 8.46849 3.35361C9.45249 3.54494 10.2138 4.30561 10.4058 5.29161Z" fill="#B88F48"/>
</svg>
