<svg width="16" height="16" viewBox="0 0 16 16" fill="none" xmlns="http://www.w3.org/2000/svg">
<g clip-path="url(#clip0_45_404)">
<g clip-path="url(#clip1_45_404)">
<path d="M16.0002 11.3532C16.0002 13.5853 14.2081 15.3933 11.9761 15.4013H11.9681H4.04004C1.81602 15.4013 0 13.6013 0 11.3692V11.3612C0 11.3612 0.00480005 7.82039 0.0112001 6.03958C0.0120001 5.70517 0.396004 5.51797 0.657607 5.72597C2.55843 7.23399 5.95766 9.98362 6.00006 10.0196C6.56807 10.4748 7.28807 10.7316 8.02408 10.7316C8.76009 10.7316 9.4801 10.4748 10.0481 10.0108C10.0905 9.98282 13.4137 7.31559 15.3434 5.78277C15.6058 5.57397 15.9914 5.76117 15.9922 6.09478C16.0002 7.86199 16.0002 11.3532 16.0002 11.3532Z" fill="white"/>
<path d="M15.5809 3.13922C14.8881 1.83361 13.5248 1 12.024 1H4.03994C2.53913 1 1.17591 1.83361 0.483108 3.13922C0.327906 3.43122 0.401507 3.79523 0.659909 4.00163L6.59997 8.75288C7.01597 9.08888 7.51998 9.25608 8.02398 9.25608C8.02718 9.25608 8.02958 9.25608 8.03198 9.25608C8.03438 9.25608 8.03758 9.25608 8.03998 9.25608C8.54399 9.25608 9.04799 9.08888 9.464 8.75288L15.4041 4.00163C15.6625 3.79523 15.7361 3.43122 15.5809 3.13922Z" fill="white"/>
</g>
</g>
<defs>
<clipPath id="clip0_45_404">
<rect width="16" height="16" fill="white"/>
</clipPath>
<clipPath id="clip1_45_404">
<rect width="16" height="16" fill="white"/>
</clipPath>
</defs>
</svg>
