<svg width="16" height="16" viewBox="0 0 16 16" fill="none" xmlns="http://www.w3.org/2000/svg">
<g clip-path="url(#clip0_45_396)">
<path fill-rule="evenodd" clip-rule="evenodd" d="M10.7341 9.44184C9.96028 9.82117 9.29033 10.1505 7.54799 8.39675C5.80643 6.64296 6.1321 5.96939 6.50973 5.18967C7.05639 4.0595 7.27738 3.03158 4.79453 0.973395C4.20134 0.485581 3.55776 0.298261 2.88548 0.429385C1.46417 0.697098 0.460016 2.28932 0.461567 2.28932C-0.168062 3.17597 -1.03031 5.84217 4.52701 11.4368C8.18227 15.1169 10.5798 15.9996 12.0345 15.9996C12.7913 15.9996 13.293 15.7608 13.583 15.5508C13.5985 15.5415 15.1943 14.5463 15.4641 13.0876C15.5897 12.4093 15.4067 11.7638 14.9213 11.1668C12.8774 8.66993 11.8561 8.89159 10.7341 9.44184Z" fill="white"/>
<path fill-rule="evenodd" clip-rule="evenodd" d="M10.0245 0.00453755C9.70423 -0.0360486 9.41733 0.200444 9.38244 0.52123C9.34677 0.842797 9.57707 1.13158 9.89576 1.16749C12.5143 1.46017 14.5474 3.50509 14.8413 6.14007C14.8746 6.439 15.1259 6.65988 15.4182 6.65988C15.4399 6.65988 15.4624 6.65832 15.4841 6.65598C15.8028 6.62086 16.0323 6.33051 15.9966 6.00894C15.6423 2.82761 13.1866 0.358105 10.0245 0.00453755Z" fill="white"/>
<path fill-rule="evenodd" clip-rule="evenodd" d="M12.1031 6.19517C12.1574 6.47459 12.4009 6.66815 12.673 6.66815C12.7102 6.66815 12.7475 6.66503 12.7855 6.658C13.1003 6.59634 13.3065 6.28805 13.2453 5.97116C12.9297 4.34616 11.6836 3.09189 10.0708 2.77657C9.76293 2.71491 9.45045 2.92252 9.38919 3.24018C9.32793 3.55707 9.53419 3.86459 9.84978 3.92625C10.9943 4.15025 11.8798 5.0408 12.1031 6.19517Z" fill="white"/>
<path fill-rule="evenodd" clip-rule="evenodd" d="M10.0245 16.0045C9.70423 15.964 9.41733 16.2004 9.38244 16.5212C9.34677 16.8428 9.57707 17.1316 9.89576 17.1675C12.5143 17.4602 14.5474 19.5051 14.8413 22.1401C14.8746 22.439 15.1259 22.6599 15.4182 22.6599C15.4399 22.6599 15.4624 22.6583 15.4841 22.656C15.8028 22.6209 16.0323 22.3305 15.9966 22.0089C15.6423 18.8276 13.1866 16.3581 10.0245 16.0045Z" fill="#B88F48"/>
<path fill-rule="evenodd" clip-rule="evenodd" d="M12.1031 22.1952C12.1574 22.4746 12.4009 22.6681 12.673 22.6681C12.7102 22.6681 12.7475 22.665 12.7855 22.658C13.1003 22.5963 13.3065 22.288 13.2453 21.9712C12.9297 20.3462 11.6836 19.0919 10.0708 18.7766C9.76293 18.7149 9.45045 18.9225 9.38919 19.2402C9.32793 19.5571 9.53419 19.8646 9.84978 19.9262C10.9943 20.1502 11.8798 21.0408 12.1031 22.1952Z" fill="#B88F48"/>
</g>
<defs>
<clipPath id="clip0_45_396">
<rect width="16" height="16" fill="white"/>
</clipPath>
</defs>
</svg>
